<svg fill="none">
<path d="M86.7387 4C85.9166 6.21875 83.3353 8 81.0006 8C78.6659 8 77.4328 6.21875 78.2548 4C79.0769 1.79688 81.6582 0 83.9929 0C86.3276 0 87.5772 1.78125 86.7387 4Z" fill="white"/>
<path d="M35.3873 1L21 28H30.7069L32.9647 23.142H36.442L35.2225 28H44.847L49 1H35.3708H35.3873ZM37.8758 18.3501H34.6127C35.7334 15.9706 37.678 12.1867 40.4632 6.96512C39.3755 11.5092 38.5185 15.3097 37.8758 18.3501Z" fill="white"/>
<path d="M23.4597 17.6286H14.2506L13.0754 21.0235C12.5602 22.5068 12.1255 23.4461 11.7713 23.8417C11.4171 24.2537 10.8858 24.4514 10.1935 24.4514C9.50123 24.4514 9.06654 24.2537 9.00214 23.8582C8.93774 23.4626 9.13093 22.6056 9.58173 21.3037L13.9125 8.82813C14.3955 7.46027 14.798 6.57034 15.1522 6.15833C15.5064 5.74632 16.0538 5.54856 16.8266 5.54856C17.5028 5.54856 17.8892 5.71336 17.9697 6.05945C18.0502 6.40553 17.857 7.22955 17.3901 8.58093L15.7801 13.2284H24.9891L25.8746 10.6739C26.744 8.16892 27.1143 6.32313 26.9694 5.15303C26.8245 3.96645 26.0034 2.97763 24.5222 2.18658C23.025 1.39553 20.9159 1 18.2112 1C16.2148 1 14.3472 1.26368 12.6246 1.77457C10.9019 2.28546 9.45293 2.99411 8.27765 3.90053C7.10237 4.79047 6.24909 5.72984 5.7339 6.70218C5.21871 7.67451 4.62302 9.12478 3.94683 11.0695L1.20989 18.9305C0.308305 21.5344 -0.0941872 23.5121 0.0185106 24.814C0.131208 26.1324 0.936193 27.1542 2.43346 27.8958C3.93074 28.6374 6.02369 29 8.72844 29C11.4332 29 13.671 28.5715 15.7479 27.6816C17.8248 26.7916 19.3381 25.7699 20.2558 24.5998C21.1735 23.4297 22.1234 21.452 23.1055 18.6504L23.4758 17.6121L23.4597 17.6286Z" fill="white"/>
<path d="M113.387 1L99 28H108.707L110.965 23.142H114.426L113.206 28H122.83L127 1H113.371H113.387ZM115.892 18.3501H112.629C113.733 15.9706 115.695 12.1867 118.48 6.96512C117.392 11.5092 116.535 15.3097 115.892 18.3501Z" fill="white"/>
<path d="M109.043 6.43635L111 1H91.8194C91.7692 1.77662 91.602 2.60282 91.301 3.46206C90.9164 4.50306 90.3646 5.49449 89.7124 6.41983H93.7759L86 28H95.5652L103.341 6.41983H109.06L109.043 6.43635Z" fill="white"/>
<path d="M73.0735 10.9143L73.6911 9.14627C72.9597 7.60955 72.8784 5.62668 73.6424 3.46206C73.7399 3.16463 73.87 2.8672 74 2.56977C73.4961 2.09058 72.6833 1.71053 71.5617 1.44614C70.2938 1.14871 68.3919 1 65.8561 1H56.4606L47 28H56.2818L60.0855 17.1438H62.5888C64.637 17.1438 66.3763 16.929 67.7905 16.4994C69.2047 16.0698 70.2938 15.4749 71.0415 14.6818C71.7893 13.8886 72.472 12.6328 73.0735 10.8978V10.9143ZM66.3925 7.84088L65.6123 10.0881C65.2547 11.0961 64.8645 11.757 64.3931 12.0875C63.938 12.418 63.2715 12.5832 62.3937 12.5832C62.1987 12.5832 61.9548 12.5832 61.6948 12.5502L64.1331 5.59364C65.3847 5.59364 66.1487 5.74235 66.4413 6.02326C66.7339 6.30416 66.7176 6.91554 66.3925 7.85741V7.84088Z" fill="white"/>
<path d="M79.3479 12.474C77.6916 12.474 76.2914 12.0482 75.1985 11.3112L69 28H78.682L85 11C83.19 11.9171 81.2433 12.4576 79.3479 12.4576V12.474Z" fill="white"/>
</svg>
